<svg width="508" height="512" viewBox="0 0 508 512" fill="none" xmlns="http://www.w3.org/2000/svg">
<g clip-path="url(#clip0_1130_22)">
<path d="M253.93 512C394.117 512 507.761 397.385 507.761 256C507.761 114.615 394.117 0 253.93 0C113.743 0 0.0996094 114.615 0.0996094 256C0.0996094 397.385 113.743 512 253.93 512Z" fill="#1F1F22"/>
<path fill-rule="evenodd" clip-rule="evenodd" d="M353.051 372.629C376.678 352.205 393.536 324.972 401.354 294.594C409.172 264.216 407.576 232.151 396.78 202.716C385.984 173.28 366.506 147.887 340.969 129.952C315.431 112.018 285.059 102.404 253.94 102.404C222.822 102.404 192.45 112.018 166.912 129.952C141.375 147.887 121.897 173.28 111.101 202.716C100.305 232.151 98.7087 264.216 106.527 294.594C114.345 324.972 131.202 352.205 154.83 372.629L121.769 411.499C99.5073 392.29 81.6405 368.441 69.3998 341.596C57.1592 314.751 50.8357 285.548 50.8653 256C50.8653 201.684 72.2596 149.592 110.342 111.185C148.423 72.7773 200.074 51.2002 253.93 51.2002C280.597 51.2002 307.002 56.4975 331.639 66.7897C356.276 77.0818 378.662 92.1673 397.518 111.185C416.374 130.202 431.332 152.779 441.537 177.627C451.742 202.474 456.994 229.105 456.994 256C457.027 285.551 450.705 314.758 438.464 341.607C426.223 368.456 408.355 392.309 386.091 411.52L353.051 372.629Z" fill="#CDCDCD" fill-opacity="0.1"/>
<path fill-rule="evenodd" clip-rule="evenodd" d="M253.93 51.2002C200.074 51.2002 148.424 72.7773 110.342 111.185C72.2596 149.592 50.8654 201.684 50.8654 256C50.8327 285.551 57.1547 314.758 69.3954 341.607C81.6362 368.456 99.5046 392.309 121.769 411.52L154.809 372.629C131.179 352.205 114.32 324.97 106.501 294.59C98.6826 264.211 100.28 232.144 111.077 202.708C121.875 173.271 141.354 147.876 166.894 129.943C192.435 112.009 222.809 102.397 253.93 102.4V51.2002Z" fill="#FFC800"/>
<path d="M250.017 308.992C241.852 308.992 229.583 308.331 213.232 307.008V285.333C227.933 288.085 238.996 289.451 246.463 289.451C252.978 289.451 257.716 288.747 260.678 287.317C262.041 286.697 263.19 285.683 263.981 284.403C264.772 283.123 265.168 281.635 265.12 280.128V262.763C265.12 259.52 264.062 257.259 261.926 255.936C259.789 254.507 256.299 253.803 251.434 253.803H215.898V190.891H288.747V210.965H241.873V234.624H259.98C266.854 234.624 273.559 235.925 280.074 238.571C283.645 240.096 286.675 242.675 288.766 245.968C290.857 249.261 291.912 253.115 291.793 257.024V281.387C291.793 286.059 290.905 290.24 289.128 293.931C287.351 297.515 285.109 300.267 282.359 302.187C279.463 304.216 276.211 305.671 272.777 306.475C268.864 307.541 265.077 308.267 261.418 308.629C257.628 308.853 253.834 308.974 250.038 308.992H250.017Z" fill="#FFC800"/>
</g>
<defs>
<clipPath id="clip0_1130_22">
<rect width="507.661" height="512" fill="white" transform="translate(0.0996094)"/>
</clipPath>
</defs>
</svg>
