<?xml version="1.0" encoding="utf-8"?>

<svg version="1.1" id="Слой_1" xmlns="http://www.w3.org/2000/svg" xmlns:xlink="http://www.w3.org/1999/xlink" x="0px" y="0px"
	 viewBox="0 0 32 13" enable-background="new 0 0 32 13" xml:space="preserve">
<g>
	<g>
		
			<linearGradient id="SVGID_1_" gradientUnits="userSpaceOnUse" x1="16" y1="17.8901272" x2="16" y2="-2.6330078" gradientTransform="matrix(1 0 0 -1 0 14)">
			<stop  offset="0.193978" style="stop-color:#977FFF"/>
			<stop  offset="0.5110964" style="stop-color:#5800AA"/>
			<stop  offset="0.5138146" style="stop-color:#19002A"/>
			<stop  offset="0.8415039" style="stop-color:#6600E9"/>
		</linearGradient>
		<path fill="url(#SVGID_1_)" d="M30.4255676,6.3817554c0.0785122,0.1562743,0.0788574,0.3403969,0.0009289,0.496964
			l-0.9662342,1.941288l-1.1066113,2.2220659c-0.0939503,0.188653-0.2865582,0.3079023-0.4973087,0.3079023H4.1442523
			c-0.2107482,0-0.403352-0.1192455-0.4973047-0.3078928L2.5402787,8.8200073L1.5734982,6.8775134
			C1.4959126,6.7216253,1.4959028,6.5383792,1.5734718,6.382483l0.9068093-1.8224854L3.7669172,1.977782
			c0.0939713-0.1885959,0.2865472-0.3077991,0.4972582-0.3077991h23.4711819c0.2112675,0,0.4042511,0.1198268,0.4979458,0.3091817
			l1.2770081,2.580833L30.4255676,6.3817554z"/>
		<g opacity="0.7">
			<path fill="#FFFFFF" d="M27.7353535,1.9199791c0.1170311,0,0.2219715,0.0651598,0.27388,0.1700602l1.2776909,2.5821896
				l0.9152489,1.8217707c0.0429611,0.0854897,0.0431499,0.1876597,0.0005112,0.2733197L29.2364845,8.708559l-1.1066208,2.2220707
				c-0.0520191,0.1044598-0.1568203,0.1693497-0.2735195,0.1693497H4.1442542c-0.1166902,0-0.2215002-0.0648899-0.2735302-0.1693497
				L2.7640841,8.7086191L1.797304,6.7661195c-0.04242-0.0852404-0.04242-0.1870203-0.00001-0.2722702l0.9067501-1.8223596
				L3.990674,2.0892696c0.0520301-0.1044207,0.1568298-0.1692905,0.2735-0.1692905H27.7353535 M27.7353535,1.6699791H4.264174
				c-0.21071,0-0.40329,0.1192102-0.4972599,0.3078003L2.480284,4.5599995L1.573474,6.3824792
				c-0.07757,0.1559-0.0775601,0.33915,0.00002,0.4950299l0.9667801,1.9425001L3.646944,11.042079
				c0.09396,0.1886501,0.2865601,0.3079004,0.4973102,0.3079004h23.7120895c0.2107506,0,0.4033604-0.1192503,0.4973106-0.30791
				l1.1066093-2.2220602l0.9662304-1.9412899c0.0779285-0.15657,0.077589-0.3406901-0.0009308-0.4969602l-0.9152489-1.8217597
				l-1.27701-2.5808306C28.1396046,1.7898092,27.9466248,1.6699791,27.7353535,1.6699791L27.7353535,1.6699791z"/>
		</g>
	</g>
</g>
<g>
	<g>
		
			<linearGradient id="SVGID_00000149342830659567083960000006588580384309973658_" gradientUnits="userSpaceOnUse" x1="16" y1="20.0900364" x2="16" y2="-4.7599392" gradientTransform="matrix(1 0 0 -1 0 14)">
			<stop  offset="0.1620525" style="stop-color:#1C002A"/>
			<stop  offset="0.2926309" style="stop-color:#18002A"/>
			<stop  offset="0.5145251" style="stop-color:#2B003F"/>
			<stop  offset="0.7560725" style="stop-color:#07002A"/>
		</linearGradient>
		
			<linearGradient id="SVGID_00000085928726228619358880000005396641759531185311_" gradientUnits="userSpaceOnUse" x1="16" y1="13.8900023" x2="16" y2="1.0999877" gradientTransform="matrix(1 0 0 -1 0 14)">
			<stop  offset="0.0000017" style="stop-color:#C0AAFF"/>
			<stop  offset="0.5055906" style="stop-color:#7400D4"/>
			<stop  offset="0.5100619" style="stop-color:#E5D4FF"/>
			<stop  offset="0.9999998" style="stop-color:#8755FF"/>
		</linearGradient>
		
			<path fill="url(#SVGID_00000149342830659567083960000006588580384309973658_)" stroke="url(#SVGID_00000085928726228619358880000005396641759531185311_)" stroke-width="0.4" stroke-miterlimit="10" d="
			M28.3144875,6.5274658c0.0695381,0.1401787,0.0694218,0.304832-0.0003147,0.4449124l-2.1792717,4.3775973l-0.5322456,1.0723915
			c-0.0844097,0.1700754-0.2578888,0.2776451-0.4477596,0.2776451H6.8448372c-0.189877,0-0.3633604-0.1075773-0.4477682-0.2776613
			L5.864881,11.3499756L3.6858265,6.9728165C3.615968,6.832489,3.6159811,6.6675177,3.6858621,6.5272012l2.4190092-4.8572183
			l0.5418305-1.083661c0.0846748-0.1693498,0.2577634-0.2763244,0.4471021-0.2763244H24.915926
			c0.1893387,0,0.3624287,0.1069745,0.4471035,0.2763244l0.5418301,1.083661L28.3144875,6.5274658z"/>
	</g>
</g>
<g>
	<g>
		<g opacity="0.06">
			<path fill="#FFFFFF" d="M10.3020535,10.4500122L11.322073,12.5H7.9320588l-1.0200195-2.0499878L5.3320832,7.289978
				c-0.1199951-0.2399902-0.1199951-0.5199585,0-0.75l2.9999995-6.0299683h3.4199829L8.7420559,6.539978
				c-0.1099854,0.25-0.1099854,0.5300293,0,0.7800293L10.3020535,10.4500122z"/>
		</g>
		<g opacity="0.06">
			<path fill="#FFFFFF" d="M21.689682,10.4500122L20.6696625,12.5h3.3900146l1.0200195-2.0499878l1.5799561-3.1600342
				c0.1199951-0.2399902,0.1199951-0.5199585,0-0.75l-3-6.0299683h-3.4199829l3.0100098,6.0299683
				c0.1099854,0.25,0.1099854,0.5300293,0,0.7800293L21.689682,10.4500122z"/>
		</g>
		<g>
			
				<linearGradient id="SVGID_00000003102243520078271840000012877930705135491463_" gradientUnits="userSpaceOnUse" x1="6.8316393" y1="14.7438822" x2="6.8316393" y2="0.3543994" gradientTransform="matrix(1 0 0 -1 0 14)">
				<stop  offset="0.193978" style="stop-color:#977FFF"/>
				<stop  offset="0.5110964" style="stop-color:#5800AA"/>
				<stop  offset="0.5138146" style="stop-color:#19002A"/>
				<stop  offset="0.8415039" style="stop-color:#6600E9"/>
			</linearGradient>
			<path fill="url(#SVGID_00000003102243520078271840000012877930705135491463_)" d="M6.3941469,6.5200195
				c-0.0599976,0.1300049-0.0599976,0.2699585,0,0.3999634l1.9500122,3.9200439l0.4799805,0.9599609
				c0,0,0,0.0100098,0.0100098,0.0100098H7.3641176c-0.1699829,0-0.3200073-0.0900269-0.3900146-0.2399902l-0.4499512-0.9199829
				l-1.8699951-3.75c-0.0599976-0.1199951-0.0599976-0.2600098,0-0.3800049L6.724103,2.3599854l0.4700317-0.9299927
				C7.264142,1.2800293,7.4141054,1.1900024,7.5741396,1.1900024h1.4799805c-0.0100098,0-0.0100098,0.0100098-0.0100098,0.0100098
				L8.5641298,2.1699829L6.3941469,6.5200195z"/>
			<g opacity="0.7">
				<path fill="#FFFFFF" d="M8.6464167,1.4399996L8.3404198,2.0583801L6.1671596,6.4152598
					c-0.0907001,0.1965103-0.0907001,0.4129701,0.00315,0.6160703l1.9502397,3.9204998l0.3040857,0.6081696H7.3641195
					c-0.0743799,0-0.1355-0.0357895-0.1654401-0.0998297l-0.4507999-0.92171l-1.87012-3.7502499
					C4.8529196,6.7385201,4.8529196,6.68152,4.8779798,6.6313901l2.0692396-4.1586299l0.4734502-0.9370298
					c0.0275702-0.0590506,0.08637-0.0957308,0.15347-0.0957308H8.6464167 M9.0541201,1.1899996H7.5741396
					c-0.1600299,0-0.3099999,0.0900307-0.3800001,0.2399902L6.7240996,2.3599901L4.6541595,6.52002
					c-0.0599999,0.1199899-0.0599999,0.2600098,0,0.3800001l1.8699899,3.7499995l0.4499502,0.9199905
					c0.0700102,0.1499596,0.2200398,0.2399893,0.3900199,0.2399893h1.4700298c-0.0100098,0-0.0100098-0.0100098-0.0100098-0.0100098
					l-0.4799805-0.95996L6.3941498,6.91998c-0.0600004-0.1300001-0.0600004-0.2699599,0-0.39996l2.16998-4.35004
					l0.4799795-0.9699697C9.0441093,1.2000103,9.0441093,1.1899996,9.0541201,1.1899996L9.0541201,1.1899996z"/>
			</g>
		</g>
	</g>
</g>
<g>
	<g>
		<g>
			
				<linearGradient id="SVGID_00000176751991901187277450000007281440021503531962_" gradientUnits="userSpaceOnUse" x1="-948.0113525" y1="13.1157026" x2="-948.0113525" y2="1.9514741" gradientTransform="matrix(-1 0 0 -1 -922.78302 14)">
				<stop  offset="0.193978" style="stop-color:#977FFF"/>
				<stop  offset="0.5110964" style="stop-color:#5800AA"/>
				<stop  offset="0.5138146" style="stop-color:#19002A"/>
				<stop  offset="0.8415039" style="stop-color:#6600E9"/>
			</linearGradient>
			<path fill="url(#SVGID_00000176751991901187277450000007281440021503531962_)" d="M25.6658249,6.5200195
				c0.0599976,0.1300049,0.0599976,0.2699585,0,0.3999634l-1.9500122,3.9200439l-0.4799805,0.9599609
				c0,0,0,0.0100098-0.0100098,0.0100098h1.4700317c0.1699829,0,0.3200073-0.0900269,0.3900146-0.2399902l0.4499512-0.9199829
				l1.8699951-3.75c0.0599976-0.1199951,0.0599976-0.2600098,0-0.3800049l-2.0699463-4.1600342l-0.4700317-0.9299927
				c-0.0700073-0.1499634-0.2199707-0.2399902-0.3800049-0.2399902h-1.4799805c0.0100098,0,0.0100098,0.0100098,0.0100098,0.0100098
				l0.4799805,0.9699707L25.6658249,6.5200195z"/>
			<g opacity="0.7">
				<path fill="#FFFFFF" d="M24.4858322,1.4399996c0.0671005,0,0.1259003,0.0366802,0.1568794,0.1027603l0.4693413,0.9286003
					l2.0701599,4.16047c0.0248394,0.0496898,0.0248394,0.1066899-0.0001297,0.1566296l-1.8708401,3.7517204l-0.4519005,0.9240694
					c-0.0279903,0.0599604-0.0891094,0.0957499-0.1634903,0.0957499h-1.0605125l0.3043118-0.6086197l1.9531612-3.9266396
					c0.0907001-0.1965103,0.0907001-0.4129701-0.0032806-0.6163201l-2.1696205-4.3493199l-0.3063545-0.6191006H24.4858322
					 M24.4858322,1.1899996h-1.4799805c0.0100098,0,0.0100098,0.0100107,0.0100098,0.0100107L23.495842,2.16998l2.169981,4.35004
					c0.0599995,0.1300001,0.0599995,0.2699599,0,0.39996l-1.9500103,3.9200497l-0.4799805,0.95996
					c0,0,0,0.0100098-0.0100098,0.0100098h1.4700298c0.1699791,0,0.3200092-0.0900297,0.3900204-0.2399893l0.4499493-0.9199905
					l1.8699894-3.7499995c0.0600014-0.1199903,0.0600014-0.2600102,0-0.3800001l-2.0699387-4.1600299l-0.4700413-0.9300003
					C24.7958317,1.2800303,24.6458626,1.1899996,24.4858322,1.1899996L24.4858322,1.1899996z"/>
			</g>
		</g>
	</g>
</g>
<g opacity="0.29">
	<g>
		<g>
			<path fill="#FFFFFF" d="M28.9962368,6.5081668c0.0244751,0.0530334,0.0244751,0.1101251,0,0.1631584l-0.7954769,1.5991197
				l-0.1958008,0.3916006c0,0,0,0.0040836-0.0040817,0.0040836h0.5996761c0.0693417,0,0.1305408-0.036725,0.1590996-0.0979004
				l0.1835499-0.3752918l0.7628345-1.5297532c0.0244751-0.0489502,0.0244751-0.1060667,0-0.1550169l-0.8444004-1.6970201
				l-0.1917419-0.3793759c-0.0285587-0.0611749-0.089735-0.0978999-0.1550179-0.0978999h-0.603735
				c0.0040836,0,0.0040836,0.0040832,0.0040836,0.0040832l0.1958008,0.3956842L28.9962368,6.5081668z"/>
		</g>
	</g>
</g>
<g opacity="0.29">
	<g>
		<g>
			<path fill="#FFFFFF" d="M2.9781437,6.5081668c-0.0244751,0.0530334-0.0244751,0.1101251,0,0.1631584l0.7954764,1.5991197
				l0.1958005,0.3916006c0,0,0,0.0040836,0.0040832,0.0040836H3.3738277c-0.0693417,0-0.1305418-0.036725-0.1591003-0.0979004
				L3.031177,8.1929369L2.2683423,6.6631837c-0.0244751-0.0489502-0.0244751-0.1060667,0-0.1550169l0.8444018-1.6970201
				L3.304486,4.4317708c0.0285583-0.0611749,0.0897336-0.0978999,0.1550169-0.0978999h0.6037347
				c-0.0040836,0-0.0040836,0.0040832-0.0040836,0.0040832L3.8633537,4.7336383L2.9781437,6.5081668z"/>
		</g>
	</g>
</g>
<g>
	<path fill="#FFFFFF" d="M15.9343262,8.3747559h-0.7734375v1.3310547h-1.3261719V8.3747559h-2.7431641V7.4294434
		l2.8173828-4.1484375h1.2519531v4.0385742h0.7734375V8.3747559z M13.8347168,7.3195801V6.2297363
		c0-0.1816406,0.0058594-0.4453125,0.0214844-0.7910156c0.0136719-0.3457031,0.0253906-0.5463867,0.0351562-0.6020508h-0.0351562
		c-0.109375,0.2402344-0.2402344,0.4746094-0.390625,0.703125l-1.1787109,1.7797852H13.8347168z"/>
	<path fill="#FFFFFF" d="M20.9084473,6.0231934c0,1.265625-0.2666016,2.2109375-0.7998047,2.8349609
		s-1.3398438,0.9355469-2.421875,0.9355469c-0.3803711,0-0.668457-0.0205078-0.8647461-0.0615234V8.642334
		c0.2460938,0.0615234,0.5039062,0.0927734,0.7729492,0.0927734c0.4541016,0,0.8271484-0.0664062,1.1210938-0.2001953
		c0.2919922-0.1328125,0.5166016-0.3427734,0.671875-0.6289062c0.1552734-0.2851562,0.2441406-0.6787109,0.2675781-1.1796875
		h-0.0527344c-0.1699219,0.2753906-0.3662109,0.46875-0.5878906,0.5800781
		c-0.2236328,0.1113281-0.5019531,0.1669922-0.8359375,0.1669922c-0.5595703,0-0.9995117-0.1791992-1.3217773-0.5380859
		s-0.4833984-0.8579102-0.4833984-1.496582c0-0.6884766,0.1953125-1.2329102,0.5869141-1.6323242
		c0.3901367-0.4003906,0.9223633-0.6000977,1.597168-0.6000977c0.4746094,0,0.8896484,0.1113281,1.2451172,0.3339844
		c0.3564453,0.2226562,0.6289062,0.5458984,0.8193359,0.9692383S20.9084473,5.4372559,20.9084473,6.0231934z M18.583252,4.2961426
		c-0.28125,0-0.5,0.0966797-0.6582031,0.2900391s-0.2382812,0.4716797-0.2382812,0.8349609
		c0,0.3105469,0.0722656,0.5566406,0.2158203,0.7382812s0.3613281,0.2724609,0.6552734,0.2724609
		c0.2744141,0,0.5107422-0.090332,0.7070312-0.2700195c0.1962891-0.1806641,0.2949219-0.3876953,0.2949219-0.6220703
		c0-0.3486328-0.0917969-0.6430664-0.2753906-0.8833008C19.1018066,4.4162598,18.8674316,4.2961426,18.583252,4.2961426z"/>
</g>
</svg>
