<svg width="512" height="512" viewBox="0 0 512 512" fill="none" xmlns="http://www.w3.org/2000/svg">
<g clip-path="url(#clip0_2260_3)">
<path d="M457.174 193.707C452.48 85.5469 364.16 1.06689 256 1.06689C147.84 1.06689 59.5203 85.5469 54.8269 193.707L42.8803 471.894C42.4536 483.2 47.1469 494.08 55.6803 501.334C64.4269 508.8 75.7336 511.787 86.8269 509.654L147.84 497.28C157.227 495.574 166.614 495.574 175.787 497.707L234.454 510.72C241.494 512.214 248.747 513.067 256 513.067C263.254 513.067 270.507 512.214 277.547 510.72L336.214 497.707C345.387 495.574 354.774 495.574 364.16 497.28L424.96 509.654C436.267 511.787 447.574 508.8 456.32 501.334C464.854 494.08 469.547 483.2 469.12 471.894L457.174 193.707ZM181.334 299.734C151.467 299.734 128 266.88 128 225.067C128 183.254 151.467 150.4 181.334 150.4C211.2 150.4 234.667 183.254 234.667 225.067C234.667 266.88 211.2 299.734 181.334 299.734ZM330.667 299.734C300.8 299.734 277.334 266.88 277.334 225.067C277.334 183.254 300.8 150.4 330.667 150.4C360.534 150.4 384 183.254 384 225.067C384 266.88 360.534 299.734 330.667 299.734Z" fill="white"/>
</g>
<defs>
<clipPath id="clip0_2260_3">
<rect width="512" height="512" fill="white"/>
</clipPath>
</defs>
</svg>
